<?xml version="1.0" encoding="UTF-8" standalone="no"?>
<svg
   xmlns:dc="http://purl.org/dc/elements/1.1/"
   xmlns:cc="http://creativecommons.org/ns#"
   xmlns:rdf="http://www.w3.org/1999/02/22-rdf-syntax-ns#"
   xmlns:svg="http://www.w3.org/2000/svg"
   xmlns="http://www.w3.org/2000/svg"
   id="svg8"
   version="1.1"
   class="project_icon projectSectionPill--icon project_icon_inbox"
   viewBox="0 0 16 16"
   height="16"
   width="16">
  <metadata
     id="metadata14">
    <rdf:RDF>
      <cc:Work
         rdf:about="">
        <dc:format>image/svg+xml</dc:format>
        <dc:type
           rdf:resource="http://purl.org/dc/dcmitype/StillImage" />
      </cc:Work>
    </rdf:RDF>
  </metadata>
  <defs
     id="defs12" />
  <g
     id="g6"
     fill="#246FE0">
    <path
       id="path2"
       opacity="0.1"
       d="M13.5 9.5V12a1.5 1.5 0 01-1.5 1.5H4A1.5 1.5 0 012.5 12V9.5h3.75a1.75 1.75 0 003.5 0h3.75z" />
    <path
       id="path4"
       d="M10.491 2a2 2 0 011.923 1.45l1.509 5.28a2 2 0 01.077.55V12a2 2 0 01-2 2H4a2 2 0 01-2-2V9.28a2 2 0 01.077-.55l1.509-5.28A2 2 0 015.509 2h4.982zm0 1H5.51a1 1 0 00-.962.725l-1.509 5.28A1 1 0 003 9.28V12a1 1 0 001 1h8a1 1 0 001-1V9.28a1 1 0 00-.038-.275l-1.51-5.28a1 1 0 00-.96-.725zM6.25 9a.5.5 0 01.5.5 1.25 1.25 0 002.5 0 .5.5 0 01.5-.5h1.75a.5.5 0 110 1h-1.306a2.25 2.25 0 01-4.388 0H4.5a.5.5 0 010-1z" />
  </g>
</svg>
